<svg width="32" height="32" viewBox="0 0 32 32" fill="none" xmlns="http://www.w3.org/2000/svg">
<path fill-rule="evenodd" clip-rule="evenodd" d="M6 4C4.89543 4 4 4.89543 4 6V26C4 27.1046 4.89543 28 6 28H26C27.1046 28 28 27.1046 28 26V6C28 4.89543 27.1046 4 26 4H6ZM6 6L26 6V22.0724L21.4225 17.4591C20.638 16.6686 19.359 16.6711 18.5776 17.4646L16.509 19.5655L11.4196 14.4538C10.6361 13.6668 9.36141 13.6689 8.58043 14.4584L6 17.0671V6ZM20.0027 18.8678L26 24.9119V26H22.9155L17.9202 20.9829L20.0027 18.8678ZM6 19.911V26H20.0932L10.0023 15.8649L6 19.911ZM17 11.5C17 10.6716 17.6716 10 18.5 10C19.3284 10 20 10.6716 20 11.5C20 12.3284 19.3284 13 18.5 13C17.6716 13 17 12.3284 17 11.5ZM18.5 8C16.567 8 15 9.567 15 11.5C15 13.433 16.567 15 18.5 15C20.433 15 22 13.433 22 11.5C22 9.567 20.433 8 18.5 8Z" fill="#FFFFFF"/>
</svg>
