<svg width="32" height="32" viewBox="0 0 32 32" fill="none" xmlns="http://www.w3.org/2000/svg">
<path fill-rule="evenodd" clip-rule="evenodd" d="M23.1251 4.38654C24.1831 4.36546 25.2349 4.38331 26.0798 4.47385C26.5036 4.51926 26.8463 4.58006 27.0991 4.65218C27.2788 4.70344 27.3647 4.74715 27.3945 4.76318C27.4105 4.79292 27.4542 4.87881 27.5055 5.05853C27.5776 5.31134 27.6384 5.65405 27.6838 6.0778C27.7743 6.92272 27.7922 7.9746 27.7711 9.03256C27.7223 11.4821 26.427 13.7497 24.3993 15.2704L21.4579 17.4765L17.2879 19.5615L12.5962 14.8697L14.6811 10.6998L16.8872 7.75834C18.408 5.73065 20.6756 4.43535 23.1251 4.38654ZM17.1541 24.242L16.5504 22.7326L15.7579 23.525C15.3674 23.9156 14.7342 23.9156 14.3437 23.525L14.2349 23.4163L12.4944 25.1568C12.1039 25.5474 11.4707 25.5474 11.0802 25.1568C10.6897 24.7663 10.6897 24.1331 11.0802 23.7426L12.8207 22.0021L10.1556 19.3369L8.41507 21.0774C8.02455 21.4679 7.39138 21.4679 7.00086 21.0774C6.61033 20.6869 6.61033 20.0537 7.00086 19.6632L8.74135 17.9227L8.63257 17.8139C8.24205 17.4234 8.24205 16.7902 8.63257 16.3997L9.42508 15.6072L7.91568 15.0035C6.46276 16.1142 4.3763 16.0052 3.04766 14.6766L2.10561 13.7346C1.71508 13.344 1.71508 12.7109 2.10561 12.3203L6.5929 7.83305C6.88204 7.54391 7.31808 7.45994 7.69393 7.62102L12.8743 9.84119L12.9326 9.72471L12.9729 9.64406L13.027 9.57193L15.2872 6.55834C17.125 4.10793 19.9382 2.44965 23.0852 2.38694C24.1757 2.36521 25.3246 2.38148 26.2929 2.48524C26.7758 2.53698 27.2428 2.61337 27.6478 2.7289C28.0236 2.83612 28.4785 3.01241 28.8119 3.34578C29.1452 3.67916 29.3215 4.13403 29.4287 4.50988C29.5443 4.91486 29.6207 5.38185 29.6724 5.86471C29.7762 6.83302 29.7924 7.98198 29.7707 9.07241C29.708 12.2194 28.0497 15.0326 25.5993 16.8704L22.5857 19.1306L22.5136 19.1847L22.4329 19.2251L22.3164 19.2833L24.5366 24.4638C24.6977 24.8396 24.6137 25.2757 24.3245 25.5648L19.8373 30.0521C19.4467 30.4426 18.8136 30.4426 18.423 30.0521L17.481 29.11C16.1523 27.7814 16.0434 25.6949 17.1541 24.242ZM11.3794 16.4814L15.6762 20.7782L15.0508 21.4037L10.7539 17.1068L11.3794 16.4814ZM7.52838 9.726L11.9784 11.6331L10.7945 14.0009L8.24501 12.9811C7.77308 12.7923 7.23407 12.903 6.87466 13.2624C6.20838 13.9287 5.12814 13.9287 4.46187 13.2624L4.22693 13.0275L7.52838 9.726ZM20.5245 20.1793L18.1567 21.3632L19.1765 23.9127C19.3652 24.3846 19.2546 24.9236 18.8952 25.283C18.2289 25.9493 18.2289 27.0295 18.8952 27.6958L19.1301 27.9308L22.4316 24.6293L20.5245 20.1793ZM21.877 8.43145C22.3877 7.92079 23.2156 7.92079 23.7263 8.43145C24.2369 8.94211 24.2369 9.77006 23.7263 10.2807C23.2156 10.7914 22.3877 10.7914 21.877 10.2807C21.3663 9.77006 21.3663 8.94211 21.877 8.43145ZM25.1405 7.01724C23.8488 5.72552 21.7545 5.72552 20.4628 7.01724C19.1711 8.30895 19.1711 10.4032 20.4628 11.6949C21.7545 12.9866 23.8488 12.9866 25.1405 11.6949C26.4322 10.4032 26.4322 8.30895 25.1405 7.01724ZM10.4548 23.1172C10.8453 22.7266 10.8453 22.0935 10.4548 21.7029C10.0642 21.3124 9.43106 21.3124 9.04054 21.7029L7.00086 23.7426C6.61033 24.1331 6.61033 24.7663 7.00086 25.1568C7.39138 25.5474 8.02455 25.5474 8.41507 25.1568L10.4548 23.1172Z" fill="#FFFFFF"/>
</svg>
